<svg xmlns="http://www.w3.org/2000/svg" width="16" height="16">
  <path d="M 2 0 L 2 16 L 10 16 L 10 15 L 3 15 L 3 5 L 13 5 L 13 10 L 14 10 L 14 4 L 10 0 L 2 0 z M 4.5 1 A 1.5 1.5 0 0 1 6 2.5 A 1.5 1.5 0 0 1 4.5 4 A 1.5 1.5 0 0 1 3 2.5 A 1.5 1.5 0 0 1 4.5 1 z M 10 1 L 13 4 L 10 4 L 10 1 z M 4.5 2 A 0.5 0.5 0 0 0 4 2.5 A 0.5 0.5 0 0 0 4.5 3 A 0.5 0.5 0 0 0 5 2.5 A 0.5 0.5 0 0 0 4.5 2 z M 4 6 L 4 7 L 12 7 L 12 6 L 4 6 z M 4 8 L 4 9 L 12 9 L 12 8 L 4 8 z M 4 10 L 4 11 L 10 11 L 10 10 L 4 10 z M 11 11 L 11 16 L 16 16 L 16 11 L 11 11 z M 4 12 L 4 13 L 10 13 L 10 12 L 4 12 z M 12 12 L 13 12 L 13 13 L 14 13 L 14 12 L 15 12 L 15 14 L 14 14 L 14 15 L 13 15 L 13 14 L 12 14 L 12 12 z " fill="#c0bfbc" />
</svg>
