<?xml version="1.0" encoding="UTF-8"?>
<svg version="1.0" viewBox="0 0 128 128" xmlns="http://www.w3.org/2000/svg">
<rect x="76" y="4" width="36" height="36" fill="#f6f5f4"/>
<path d="m16 4v116h96v-80l-36-36z" fill="#fff"/>
<path d="m16 4v36h96l-36-36h-60z" fill="#deddda"/>
<path d="m112 40-36-36v38z" opacity=".2"/>
<rect x="76" y="16" width="20" height="8" fill="#77767b"/>
<path d="m112 40-36-36v36z" fill="#fff"/>
<rect x="20" y="44" width="12" height="4" fill="#c0bfbc"/>
<rect x="36" y="44" width="22" height="4" fill="#deddda"/>
<rect x="62" y="44" width="16" height="4" fill="#c0bfbc"/>
<rect x="82" y="44" width="26" height="4" fill="#deddda"/>
<rect x="20" y="52" width="8" height="4" fill="#c0bfbc"/>
<rect x="32" y="52" width="14" height="4" fill="#deddda"/>
<rect x="50" y="52" width="16" height="4" fill="#c0bfbc"/>
<rect x="70" y="52" width="16" height="4" fill="#deddda"/>
<rect x="90" y="52" width="18" height="4" fill="#deddda"/>
<rect x="20" y="60" width="16" height="4" fill="#c0bfbc"/>
<rect x="20" y="68" width="88" height="12" fill="#deddda"/>
<rect x="20" y="84" width="12" height="4" fill="#c0bfbc"/>
<rect x="20" y="92" width="88" height="12" fill="#deddda"/>
<rect x="56" y="16" width="20" height="8" fill="#77767b"/>
<rect x="56" y="28" width="20" height="4" fill="#c0bfbc"/>
<rect x="20" y="8" width="4" height="2" fill="#9a9996"/>
<path d="m34 8a14 14 0 0 0 -14 14 14 14 0 0 0 14 14 14 14 0 0 0 14 -14 14 14 0 0 0 -14 -14zm0 8a6 6 0 0 1 6 6 6 6 0 0 1 -6 6 6 6 0 0 1 -6 -6 6 6 0 0 1 6 -6z" fill="#3584e4"/>
<rect x="28" y="8" width="4" height="2" fill="#9a9996"/>
<rect x="16" y="120" width="96" height="4" fill="#f6f5f4"/>
</svg>
